<svg xmlns="http://www.w3.org/2000/svg" viewBox="0 0 200 200" fill="none">
  <defs>
    <linearGradient id="fw-bg" x1="0" y1="0" x2="200" y2="200" gradientUnits="userSpaceOnUse">
      <stop offset="0%" stop-color="#3b0764"/>
      <stop offset="100%" stop-color="#0f172a"/>
    </linearGradient>
  </defs>
  <rect width="200" height="200" rx="24" fill="url(#fw-bg)"/>
  <!-- Wordle grid 5x1 -->
  <rect x="28" y="60" width="28" height="28" rx="4" fill="#22c55e" opacity="0.9"/>
  <rect x="62" y="60" width="28" height="28" rx="4" fill="#eab308" opacity="0.9"/>
  <rect x="96" y="60" width="28" height="28" rx="4" fill="#475569" opacity="0.9"/>
  <rect x="130" y="60" width="28" height="28" rx="4" fill="#22c55e" opacity="0.9"/>
  <rect x="164" y="60" width="28" height="28" rx="4" fill="#475569" opacity="0.9"/>
  <!-- Row 2 -->
  <rect x="28" y="96" width="28" height="28" rx="4" fill="#475569" opacity="0.5"/>
  <rect x="62" y="96" width="28" height="28" rx="4" fill="#22c55e" opacity="0.5"/>
  <rect x="96" y="96" width="28" height="28" rx="4" fill="#eab308" opacity="0.5"/>
  <rect x="130" y="96" width="28" height="28" rx="4" fill="#475569" opacity="0.5"/>
  <rect x="164" y="96" width="28" height="28" rx="4" fill="#22c55e" opacity="0.5"/>
  <!-- Row 3 empty -->
  <rect x="28" y="132" width="28" height="28" rx="4" fill="#1e293b" stroke="#475569" stroke-width="1"/>
  <rect x="62" y="132" width="28" height="28" rx="4" fill="#1e293b" stroke="#475569" stroke-width="1"/>
  <rect x="96" y="132" width="28" height="28" rx="4" fill="#1e293b" stroke="#475569" stroke-width="1"/>
  <rect x="130" y="132" width="28" height="28" rx="4" fill="#1e293b" stroke="#475569" stroke-width="1"/>
  <rect x="164" y="132" width="28" height="28" rx="4" fill="#1e293b" stroke="#475569" stroke-width="1"/>
  <!-- Decorative -->
  <circle cx="30" cy="30" r="3" fill="#a855f7" opacity="0.3"/>
  <circle cx="170" cy="170" r="3" fill="#22c55e" opacity="0.3"/>
</svg>
